<?xml version="1.0" encoding="utf-8"?>
<!-- Generator: Adobe Illustrator 21.1.0, SVG Export Plug-In . SVG Version: 6.00 Build 0)  -->
<svg version="1.1" id="Layer_1" xmlns="http://www.w3.org/2000/svg" xmlns:xlink="http://www.w3.org/1999/xlink" x="0px" y="0px"
	 width="200px" height="60px" viewBox="0 0 200 60" style="enable-background:new 0 0 200 60;" xml:space="preserve">
<path d="M42.5,45.7l32.2,0V13.5l-32.2,0L42.5,45.7z M75.6,46.6l-34,0l0-34l34,0V46.6z"/>
<polygon points="61.2,36.7 61.2,36.7 61.2,22.6 61.2,17.7 56,17.7 56,41.5 61.2,41.5 "/>
<path d="M83.9,45.7h32.2l0-32.2l-32.2,0V45.7z M117,46.6H83l0-34l34,0V46.6z"/>
<polygon points="94.3,36.7 94.3,36.7 94.3,22.6 94.3,22.6 94.3,17.7 89,17.7 89,41.5 94.3,41.5 "/>
<path d="M96.9,17.7h-0.7v4.8h1.2c4.4,0,8.2,2.2,8.2,6.9c0,5.4-3.7,7.3-8.5,7.3h-0.8v4.8h1.4c7.1,0,13.4-4.1,13.4-11.8
	C111,21,104.6,17.7,96.9,17.7"/>
<polygon points="138.7,31.4 140.5,26.8 138.6,20.1 129.6,41 135.1,41 137,36.2 137,36.2 138.7,31.4 "/>
<polygon points="143.5,18.3 139.4,18.3 141.3,25 144.1,31.9 139.9,31.9 138.3,36.2 145.8,36.2 147.7,41 153.4,41 "/>
<path d="M125.4,45.7l32.2,0V13.5l-32.2,0L125.4,45.7z M158.5,46.6l-34,0v-34l34,0V46.6z"/>
<path d="M177.9,29c0.3-3.9,3-6.7,6.5-6.7c1.9,0,3.3,0.7,4.3,1.9l3.8-3.1c-1.9-2.5-5.1-3.3-7.7-3.3c-6.9,0-11.9,4.4-12.2,11.3
	L177.9,29z"/>
<path d="M184.3,36.9c-3.4,0-6.1-2.8-6.4-6.7h-5.2c0.3,6.9,5.3,11.3,12.2,11.3c3.1,0,6.3-1.2,8.2-3.9l-4.2-3.1
	C187.9,36,186.3,36.9,184.3,36.9"/>
<path d="M166.8,45.7H199l0-32.2l-32.2,0V45.7z M199.9,46.6h-34l0-34l34,0V46.6z"/>
<polygon points="11.4,36.7 11.4,36.7 11.4,22.6 11.4,17.7 6.2,17.7 6.2,41.5 11.4,41.5 "/>
<path d="M14.1,17.7h-0.7v4.8h1.2c4.4,0,8.2,2.2,8.2,6.9c0,5.4-3.7,7.3-8.5,7.3h-0.8v4.8h1.4c7.1,0,13.4-4.1,13.4-11.8
	C28.2,21,21.7,17.7,14.1,17.7"/>
<path d="M1.1,45.7l32.2,0l0-32.2l-32.2,0L1.1,45.7z M34.2,46.6l-34,0l0-34l34,0V46.6z"/>
</svg>
