<?xml version="1.0" encoding="utf-8"?>
<!-- Generator: Adobe Illustrator 21.1.0, SVG Export Plug-In . SVG Version: 6.00 Build 0)  -->
<svg version="1.1" id="Layer_1" xmlns="http://www.w3.org/2000/svg" xmlns:xlink="http://www.w3.org/1999/xlink" x="0px" y="0px"
	 width="200px" height="50px" viewBox="0 0 200 50" style="enable-background:new 0 0 200 50;" xml:space="preserve">
<g>
	<path d="M0,50h37.5V0H0V50z M25,28.4c0,1.5-0.5,2.9-1.4,4c-1,1.1-2.1,1.9-3.6,2.1c-0.1,0.5-0.1,0.8-0.1,1.1c-0.2,1.8,0,3.4,0.6,5
		c0.7,1.6,1.6,2.9,2.9,4c0,0,0.1,0,0.1,0.1c0,0.1-0.1,0.2-0.2,0.2h-8.9c-0.1,0-0.2-0.1-0.2-0.2c0-0.1,0-0.1,0.1-0.1
		c1.2-1.1,2.2-2.4,2.8-4c0.7-1.6,0.9-3.2,0.7-5c0-0.2,0-0.6-0.1-1.1c-1.4-0.3-2.6-1-3.6-2.1c-1-1.1-1.4-2.5-1.4-4v-0.2
		c0-0.1,0.1-0.1,0.2-0.1h12.1c0.1,0,0.2,0,0.2,0.1L25,28.4L25,28.4z M21.6,15.6v1.9h-1.9v1.9h-1.9v-1.9h-1.9v-1.9h1.9v-1.9h1.9v1.9
		H21.6z M18.8,21c1.7,0,3.1,1.4,3.1,3.1c0,1.7-1.4,3.1-3.1,3.1c-1.7,0-3.1-1.4-3.1-3.1C15.6,22.4,17,21,18.8,21z M13.9,11.6
		l-0.1-0.8h9.9l-0.1,0.8H13.9z M26.9,15.6h1.9v-1.9h1.9v1.9h1.9v1.9h-1.9v1.9h-1.9v-1.9h-1.9C26.9,17.5,26.9,15.6,26.9,15.6z
		 M26.9,26.6h1.9v-1.9h1.9v1.9h1.9v1.9h-1.9v1.9h-1.9v-1.9h-1.9C26.9,28.5,26.9,26.6,26.9,26.6z M26.9,37.5h1.9v-1.9h1.9v1.9h1.9
		v1.9h-1.9v1.9h-1.9v-1.9h-1.9C26.9,39.4,26.9,37.5,26.9,37.5z M17.9,3h0.5V2.5h0.6V3h0.5v0.6h-0.5v0.5h-0.6V3.6h-0.5V3z M12.7,5.5
		c0.5-0.5,1-0.7,1.7-0.7c0.3,0,0.7,0.1,1.1,0.2c0.4-0.4,1-0.6,1.6-0.6c0.6,0,1.2,0.2,1.6,0.6c0.4-0.4,0.9-0.6,1.6-0.6
		C21,4.4,21.6,4.6,22,5c0.3-0.1,0.7-0.2,1.1-0.2c0.7,0,1.2,0.2,1.7,0.7c0.5,0.4,0.7,1,0.7,1.6c0,0.6-0.1,1-0.4,1.4L24,10.1h-1l1.4-2
		c0.2-0.4,0.3-0.7,0.3-0.9c0-0.4-0.2-0.8-0.5-1.1c-0.3-0.3-0.7-0.5-1.1-0.5c-0.2,0-0.4,0-0.6,0.1c0.1,0.4,0.2,0.7,0.2,1.1
		c0,0.5-0.1,0.9-0.3,1.2l-1.2,2.1h-0.9l1.4-2.5c0.1-0.3,0.2-0.6,0.2-0.9c0-0.4-0.2-0.8-0.5-1.1c-0.3-0.3-0.6-0.5-1.1-0.5
		c-0.5,0-0.9,0.2-1.2,0.6v4.4h-0.8V5.7c-0.3-0.4-0.7-0.6-1.2-0.6c-0.4,0-0.8,0.2-1.1,0.5c-0.3,0.3-0.4,0.6-0.4,1.1
		c0,0.3,0.1,0.6,0.2,0.9l1.4,2.5h-0.9l-1.2-2.1c-0.2-0.3-0.3-0.7-0.3-1.2c0-0.3,0.1-0.7,0.2-1.1c-0.1,0-0.3-0.1-0.6-0.1
		c-0.5,0-0.9,0.2-1.2,0.5c-0.3,0.3-0.4,0.6-0.4,1.1c0,0.2,0.1,0.5,0.3,0.9l1.4,2h-1l-1.1-1.6C12.1,8.2,12,7.7,12,7.1
		C12,6.5,12.2,5.9,12.7,5.5z M5,15.6h1.9v-1.9h1.9v1.9h1.9v1.9H8.8v1.9H6.9v-1.9H5V15.6z M5,26.6h1.9v-1.9h1.9v1.9h1.9v1.9H8.8v1.9
		H6.9v-1.9H5V26.6z M5,37.5h1.9v-1.9h1.9v1.9h1.9v1.9H8.8v1.9H6.9v-1.9H5V37.5z"/>
	<path d="M97.8,6.5v8.8c0,0.8,0,1.6-0.1,2.4c-0.2,0.8-0.4,1.5-0.6,2.3h3.8c-0.3-0.8-0.5-1.5-0.6-2.3c-0.1-0.8-0.1-1.6-0.1-2.4V6.5
		h1.6c0.6,0,1.1,0,1.6,0.1c0.7,0.1,1.3,0.3,2,0.6V4.4H92.6v2.8c0.6-0.3,1.3-0.5,2-0.6c0.5,0,1-0.1,1.6-0.1H97.8z"/>
	<path d="M77.5,17.7c-0.2,0.8-0.4,1.5-0.6,2.3h3.8c-0.3-0.8-0.5-1.5-0.6-2.3c-0.1-0.8-0.1-1.6-0.1-2.4v-7l7.1,9.7
		c0.4,0.6,0.9,1.3,1.2,1.9h2.6c-0.2-0.5-0.3-0.9-0.4-1.5c0-0.5-0.1-0.9-0.1-1.3V9.1c0-0.8,0-1.6,0.1-2.4c0.2-0.8,0.3-1.5,0.6-2.3
		h-3.8c0.3,0.8,0.5,1.5,0.6,2.3c0.1,0.8,0.1,1.6,0.1,2.4v6.8l-6.9-9.6c-0.4-0.6-0.9-1.3-1.2-1.9h-2.7c0.2,0.5,0.3,0.9,0.4,1.5
		c0,0.5,0.1,0.9,0.1,1.3v8.2C77.7,16.1,77.6,16.9,77.5,17.7z"/>
	<path d="M72.2,6.7c0.1,0.8,0.1,1.6,0.1,2.4v1.4v3.9c0,2-1.6,3.6-3.6,3.6c-2,0-3.6-1.6-3.6-3.6v-3.9V9.1c0-0.8,0-1.6,0.1-2.4
		c0.2-0.8,0.4-1.5,0.6-2.3h-3.8c0.3,0.8,0.5,1.5,0.6,2.3c0.1,0.8,0.1,1.6,0.1,2.4l0,1.4v3.9c0,3.2,2.6,5.8,5.8,5.8
		c3.2,0,5.8-2.6,5.8-5.8l0-3.9V9.1c0-0.8,0-1.6,0.1-2.4c0.2-0.8,0.4-1.5,0.6-2.3h-3.8C71.8,5.2,72,5.8,72.2,6.7z"/>
	<path d="M47,20l3.6,0c0.3-1.4,0.8-2.2,1.5-3.3l2-2.8c0,0,2.6,4.2,2.7,4.3c0.4,0.7,0.4,1.1,0.3,1.9h4.2c0,0-0.9-0.9-1.7-2l-4.2-6.2
		c0.8-1.2,3.6-5.5,3.6-5.5c0.4-0.7,0.9-1.3,1.5-2h-3.4c-0.1,0.4-0.1,0.9-0.3,1.3c-0.1,0.3-0.3,0.6-0.6,1.1l-2.1,3.2
		c-0.5-0.6-1.8-2.5-2.2-3.2c-0.5-0.8-0.7-1.1-0.8-1.5c-0.1-0.3-0.1-0.6-0.2-0.9h-3.7c0,0,1.3,1.4,2.5,3.2l3.1,4.4l-2.5,3.8
		C49.3,17.2,48.3,18.7,47,20z"/>
	<path d="M107.8,15.9v-2.6h7.1l0,4c0,0.3,0,0.7-0.1,1.3c-0.1,0.6-0.2,0.9-0.4,1.5h3.1l-0.1-0.1c-0.2-0.5-0.3-0.8-0.3-1.3
		c0-0.5-0.1-0.9-0.1-1.3V4.5c-0.8-0.1-1.6-0.2-2.4-0.3c-0.6-0.1-1.1-0.1-1.6-0.1c-2.4,0-4.2,0.7-5.5,2.1c-1.3,1.4-2,3.1-2,5.2v1.8
		v0.5v1.6c0,0.8,0,1.6-0.1,2.4c-0.2,0.8-0.4,1.5-0.6,2.3h3.2c-0.1-0.9-0.2-1.8-0.2-2.7L107.8,15.9L107.8,15.9z M109.4,7.6
		c1-0.9,2.3-1.4,3.9-1.4c0.6,0,1.3,0.1,1.7,0.2v4.7h-7.1C107.9,9.6,108.5,8.4,109.4,7.6z"/>
	<path d="M159.8,39.8c-0.1,0.6-0.2,0.9-0.4,1.5h3.1l-0.1-0.2c-0.2-0.5-0.3-0.8-0.3-1.3c0-0.5-0.1-0.9-0.1-1.3V25.8
		c-0.8-0.1-1.6-0.2-2.4-0.3c-0.6-0.1-1-0.1-1.6-0.1c-2.4,0-4.2,0.7-5.5,2.1c-1.3,1.4-2,3.1-2,5.2v1.8V35v1.6c0,0.8,0,1.6-0.1,2.4
		c-0.2,0.8-0.4,1.5-0.6,2.3l3.2,0c-0.1-0.9-0.2-1.8-0.2-2.7v-1.4v-2.6h7.1v4C159.9,38.9,159.9,39.3,159.8,39.8z M152.8,32.5
		c0-1.6,0.6-2.8,1.6-3.6c1-0.9,2.3-1.4,3.9-1.4c0.6,0,1.3,0.1,1.6,0.2v4.7H152.8z"/>
	<path d="M147.1,28c0.2-0.8,0.4-1.5,0.6-2.3H144c0.3,0.8,0.5,1.5,0.6,2.3c0.1,0.8,0.1,1.6,0.1,2.4v6.2c0,0.8,0,1.6-0.1,2.4
		c-0.2,0.8-0.4,1.5-0.6,2.3h3.8c-0.3-0.8-0.5-1.5-0.6-2.3c-0.1-0.8-0.1-1.6-0.1-2.4v-6.2C147,29.6,147,28.8,147.1,28z"/>
	<path d="M124.9,28c0.2-0.8,0.4-1.5,0.6-2.3h-3.8c0.3,0.8,0.5,1.5,0.6,2.3c0.1,0.8,0.1,1.6,0.1,2.4v6.2c0,0.8,0,1.6-0.1,2.4
		c-0.2,0.8-0.4,1.5-0.6,2.3h3.8c-0.3-0.8-0.5-1.5-0.6-2.3c-0.1-0.8-0.1-1.6-0.1-2.4v-6.2C124.7,29.6,124.8,28.8,124.9,28z"/>
	<path d="M115.3,39.1h-1.6v-8.7c0-0.8,0-1.6,0.1-2.4c0.2-0.8,0.3-1.5,0.6-2.3h-3.8c0.3,0.8,0.5,1.5,0.6,2.3c0.1,0.8,0.1,1.6,0.1,2.4
		v6.2c0,0.8,0,1.6-0.1,2.4c-0.2,0.8-0.4,1.5-0.6,2.3h9.3l0-3c-0.8,0.3-1.5,0.5-2.3,0.6C116.9,39,116.1,39.1,115.3,39.1z"/>
	<path d="M107.6,39.8c0-0.5-0.1-0.9-0.1-1.3V25.8c-0.8-0.1-1.6-0.2-2.4-0.3c-0.6-0.1-1.1-0.1-1.6-0.1c-2.4,0-4.2,0.7-5.5,2.1
		c-1.3,1.4-2,3.1-2,5.2v1.8V35v1.6c0,0.8,0,1.6-0.1,2.4c-0.2,0.8-0.4,1.5-0.6,2.3h3.2c-0.1-0.9-0.2-1.8-0.2-2.7v-1.4v-2.6h7.1v4
		c0,0.3,0,0.7-0.1,1.3c-0.1,0.6-0.2,0.9-0.4,1.5h3.1l-0.1-0.1C107.8,40.7,107.7,40.3,107.6,39.8z M105.3,32.5h-7.1
		c0-1.6,0.6-2.8,1.6-3.6c1-0.9,2.3-1.4,3.9-1.4c0.6,0,1.3,0.1,1.7,0.2V32.5z"/>
	<path d="M89.8,32.5c-0.9,0-1.8-0.1-2.7-0.2l0,3c0.6-0.3,1.3-0.5,2-0.6c0.5,0,1-0.1,1.6-0.1h0.4h0.3c-0.2,2.9-2.3,4.6-5.1,4.6
		c-3.1,0-5.7-2.6-5.7-5.8c0-3.2,2.6-5.8,5.7-5.8c2.3,0,3.9,1.2,5,3.1l1.2-2.6c-1.3-1.5-3-2.4-5-2.7c-4.9-0.7-9.2,3.1-9.2,8
		c0.1,4.4,3.6,8,7.9,8.1c3.8,0,7.3-2.7,7.3-7.8v-1.3l-2.5,0C91.2,32.5,89.8,32.5,89.8,32.5z"/>
	<path d="M62,28c0.1,0.8,0.1,1.6,0.1,2.4v6.2c0,0.8,0,1.6-0.1,2.4c-0.2,0.8-0.4,1.5-0.6,2.3h10.3v-2.9c-0.6,0.3-1.3,0.5-2,0.6
		c-0.4,0-0.9,0.1-1.5,0.1h-3.9v-4.5h2.9c0.3,0,0.7,0,1.1,0.1c0.6,0.1,0.9,0.2,1.5,0.4v-3c0,0-0.7,0.3-1.5,0.4
		c-0.5,0-0.9,0.1-1.3,0.1h-2.8v-4.6h3.8c0.6,0,1.1,0,1.6,0.1c0.7,0.1,1.3,0.3,2,0.6v-2.9H61.4C61.7,26.5,61.9,27.1,62,28z"/>
	<path d="M52,25.6h-4.8c0.3,0.8,0.5,1.5,0.6,2.3c0.1,0.8,0.1,1.6,0.1,2.4v6.2c0,0.8,0,1.6-0.1,2.4c-0.2,0.8-0.4,1.5-0.6,2.3h4.7
		l0.2,0c4.1,0,7.5-3.5,7.5-7.8C59.5,29.2,56.2,25.7,52,25.6z M52,39.1h-1.8V27.9l1.9,0c2.9,0,5.3,2.5,5.3,5.6
		C57.3,36.6,55,39.1,52,39.1z"/>
	<path d="M135.4,27.7c2.3,0,3.9,1.2,5,3.1l1.2-2.6c-1.3-1.5-3-2.4-5-2.7c-4.9-0.7-9.2,3.1-9.2,8c0.1,4.8,4.3,8.7,9.2,8
		c2-0.3,3.6-1.2,5-2.7l-1.2-2.6c-1.1,1.9-2.8,3.1-5,3.1c-3.1,0-5.7-2.6-5.7-5.8C129.7,30.3,132.2,27.7,135.4,27.7z"/>
</g>
</svg>
