<?xml version="1.0" encoding="utf-8"?>
<!-- Generator: Adobe Illustrator 21.1.0, SVG Export Plug-In . SVG Version: 6.00 Build 0)  -->
<svg version="1.1" id="Layer_1" xmlns="http://www.w3.org/2000/svg" xmlns:xlink="http://www.w3.org/1999/xlink" x="0px" y="0px"
	 width="190px" height="42px" viewBox="0 0 190 42" style="enable-background:new 0 0 190 42;" xml:space="preserve">
<style type="text/css">
	.st0{fill:#1D1D1B;}
</style>
<path class="st0" d="M14.6,2.5H2v36.6h12.6c10.2,0,18.4-6.7,18.4-18.3C33,9.1,24.8,2.5,14.6,2.5 M14.6,33.3h-6V8.4h6
	c6.4,0,11.8,4.4,11.8,12.4C26.4,29.4,20.9,33.3,14.6,33.3"/>
<path class="st0" d="M84.7,25.1h10.2v5.5c-1.9,1.9-4.9,3.2-8.3,3.2c-7.9,0-12.2-5.6-12.2-13c0-7.3,4.1-13,11.9-13
	c4.4,0,7.7,2.3,9.3,5.9l6-2.5c-2.8-5.9-8.5-9.3-15.4-9.3C75.2,2,67.6,9.2,67.6,20.8c0,11.5,7.8,18.8,18.8,18.8
	c6.5,0,11.8-2.8,15-7.3v-13H84.7V25.1z"/>
<path class="st0" d="M63.8,7.7V2.5H54h-7.1h-9.7v5.2l7.5,0.6l0,0L33,39.1h6.6l2.8-7.3h15.8l2.9,7.3h7.1l-12-30.9L63.8,7.7z
	 M44.6,25.9l5.6-15.7h0.1l5.6,15.7H44.6z"/>
<path class="st0" d="M117.9,12.7l-0.6-1.7h-3.6l-0.6,1.7h-1.5l3.2-8.4h1.7l3.2,8.4H117.9z M114.1,9.6h2.6L115.4,6l0,0L114.1,9.6z"/>
<path class="st0" d="M121.5,10.5c0.2,0.5,0.5,0.9,1.3,0.9c0.6,0,0.9-0.2,0.9-0.6c0-0.6-0.8-0.6-1.4-0.7c-1.1-0.2-1.9-0.7-1.9-1.8
	c0-1.3,1.2-1.8,2.4-1.8c1.5,0,2.2,0.8,2.4,1.7l-1.4,0.5c-0.1-0.4-0.3-0.9-1-0.9c-0.4,0-0.8,0.2-0.8,0.6c0,0.5,0.5,0.6,1.3,0.6
	c0.9,0.2,2,0.5,2,1.8s-1.1,1.9-2.5,1.9c-1.5,0-2.3-0.6-2.6-1.7L121.5,10.5z"/>
<path class="st0" d="M132.4,9.7c0,1.9-1.4,3.1-3.2,3.1s-3.2-1.2-3.2-3.1s1.4-3.1,3.2-3.1C131,6.7,132.4,7.9,132.4,9.7 M127.7,9.7
	c0,0.9,0.6,1.7,1.7,1.7c1,0,1.7-0.8,1.7-1.7c0-0.8-0.6-1.7-1.7-1.7C128.3,8,127.7,8.9,127.7,9.7"/>
<path class="st0" d="M139.3,11.1c-0.6,1.2-1.7,1.7-2.8,1.7c-1.9,0-3.1-1.4-3.1-3.1s1.3-3.1,3.2-3.1c1.1,0,2,0.5,2.6,1.7l-1.4,0.6
	c-0.2-0.5-0.6-0.8-1.3-0.8c-1,0-1.5,0.7-1.5,1.7c0,0.9,0.5,1.8,1.6,1.8c0.6,0,1.2-0.3,1.4-0.8L139.3,11.1z"/>
<path class="st0" d="M141.1,4.2c0.6,0,1,0.5,1,1s-0.5,1-1,1s-1-0.5-1-1C140,4.7,140.5,4.2,141.1,4.2 M140.2,6.8h1.5v5.8h-1.5V6.8z"
	/>
<path class="st0" d="M147.7,7.6V6.8h1.5v5.8h-1.3l-0.1-0.8l0,0c-0.4,0.6-1,0.9-1.9,0.9c-1.6,0-2.8-1.2-2.8-3.1s1.1-3.1,2.8-3.1
	C146.5,6.7,147.1,6.9,147.7,7.6L147.7,7.6z M144.5,9.7c0,0.9,0.6,1.7,1.6,1.7c0.9,0,1.6-0.6,1.6-1.7S147,8,146.1,8
	C145.1,8,144.5,8.9,144.5,9.7"/>
<path class="st0" d="M156.3,11.1c-0.6,1.2-1.7,1.7-2.8,1.7c-1.9,0-3.2-1.4-3.2-3.1s1.3-3.1,3.2-3.1c1.1,0,2,0.5,2.6,1.7l-1.4,0.6
	c-0.2-0.5-0.6-0.8-1.3-0.8c-1,0-1.5,0.7-1.5,1.7c0,0.9,0.5,1.8,1.6,1.8c0.6,0,1.2-0.3,1.4-0.8L156.3,11.1z"/>
<path class="st0" d="M158,4.2c0.6,0,1,0.5,1,1s-0.5,1-1,1c-0.6,0-1-0.5-1-1C157,4.7,157.5,4.2,158,4.2 M157.3,6.8h1.5v5.8h-1.5V6.8z
	"/>
<path class="st0" d="M166.3,9.7c0,1.9-1.4,3.1-3.2,3.1s-3.2-1.2-3.2-3.1c0-1.8,1.4-3.1,3.2-3.1C164.9,6.7,166.3,7.9,166.3,9.7
	 M161.5,9.7c0,0.9,0.6,1.7,1.7,1.7c1,0,1.7-0.8,1.7-1.7c0-0.9-0.6-1.7-1.7-1.7C162.1,8,161.5,8.9,161.5,9.7 M163.2,4.2h1.7l-1.3,1.7
	h-1.2L163.2,4.2z"/>
<path class="st0" d="M172.9,12.7h-1.5V9.1c0-0.7-0.5-1.1-1-1.1c-0.6,0-1.3,0.5-1.3,1.3v3.3h-1.5V6.8h1.3l0.1,1l0,0
	c0.5-0.7,1-1.1,1.9-1.1c1,0,2,0.6,2,2.4L172.9,12.7L172.9,12.7z"/>
<path class="st0" d="M115.7,20.4h3.9v3c-0.7,1-1.9,1.7-3.4,1.7c-2.5,0-4.4-1.7-4.4-4.4s1.8-4.4,4.3-4.4c1.6,0,2.9,0.7,3.5,2.1
	l-1.4,0.6c-0.4-0.8-1.1-1.4-2.1-1.4c-1.8,0-2.7,1.3-2.7,3c0,1.7,1,3,2.8,3c0.8,0,1.5-0.3,1.9-0.7v-1.3h-2.3L115.7,20.4L115.7,20.4z"
	/>
<path class="st0" d="M125.4,19.8v-0.7h1.5v5.8h-1.3l-0.1-0.8l0,0c-0.4,0.6-1,0.9-1.9,0.9c-1.6,0-2.8-1.2-2.8-3.1s1.1-3.1,2.8-3.1
	C124.3,19,124.8,19.2,125.4,19.8L125.4,19.8z M122.2,22c0,0.9,0.6,1.7,1.6,1.7c0.9,0,1.6-0.6,1.6-1.7s-0.6-1.7-1.6-1.7
	C122.8,20.4,122.2,21.1,122.2,22"/>
<rect x="128.4" y="16.6" class="st0" width="1.5" height="8.4"/>
<path class="st0" d="M137,23.4c-0.6,1.1-1.7,1.7-2.8,1.7c-1.7,0-3.1-1.1-3.1-3.1s1.5-3.1,3.1-3.1c1.6,0,2.9,0.9,2.9,3
	c0,0.3,0,0.4,0,0.6h-4.4c0.1,1,0.8,1.3,1.5,1.3c0.5,0,1.2-0.2,1.5-0.9L137,23.4z M135.5,21.5c0-0.9-0.7-1.2-1.4-1.2
	s-1.4,0.4-1.5,1.2H135.5z"/>
<path class="st0" d="M139.6,25.8c0.5,0.5,1.2,0.6,1.6,0.6c0.8,0,1.5-0.4,1.5-1.5v-0.6l0,0c-0.6,0.6-1.1,0.8-1.9,0.8
	c-1.7,0-2.8-1.2-2.8-3c0-1.9,1.2-3.1,2.8-3.1c0.9,0,1.6,0.4,1.9,0.9l0,0l0.1-0.8h1.3v5.7c0,2.3-1.6,2.8-3,2.8
	c-0.7,0-1.8-0.1-2.5-0.7L139.6,25.8z M142.6,22c0-1-0.6-1.7-1.6-1.7c-1,0-1.6,0.8-1.6,1.7c0,0.9,0.6,1.7,1.6,1.7
	C142,23.7,142.6,23.1,142.6,22"/>
<path class="st0" d="M150.1,19.8v-0.7h1.5v5.8h-1.3l-0.1-0.8l0,0c-0.4,0.6-1,0.9-1.9,0.9c-1.6,0-2.8-1.2-2.8-3.1s1.1-3.1,2.8-3.1
	C149,19,149.5,19.2,150.1,19.8L150.1,19.8z M146.9,22c0,0.9,0.6,1.7,1.6,1.7c0.9,0,1.6-0.6,1.6-1.7s-0.6-1.7-1.6-1.7
	C147.5,20.4,146.9,21.1,146.9,22"/>
<path class="st0" d="M117.9,37.2h-1.3l-0.1-0.8l0,0c-0.4,0.6-1,0.9-1.9,0.9c-1.6,0-2.8-1.2-2.8-3.1c0-1.9,1.1-3.1,2.8-3.1
	c0.7,0,1.3,0.2,1.9,0.8l0,0v-3.2h1.5V37.2z M113.2,34.4c0,0.9,0.6,1.7,1.6,1.7c0.9,0,1.6-0.6,1.6-1.7c0-1-0.6-1.7-1.6-1.7
	C113.8,32.6,113.2,33.4,113.2,34.4"/>
<path class="st0" d="M125,35.8c-0.6,1.1-1.7,1.7-2.8,1.7c-1.7,0-3.1-1.1-3.1-3.1s1.5-3.1,3.1-3.1c1.6,0,2.9,0.9,2.9,3
	c0,0.3,0,0.4,0,0.6h-4.4c0.1,1,0.8,1.3,1.5,1.3c0.5,0,1.2-0.2,1.5-0.9L125,35.8z M123.5,33.7c0-0.9-0.7-1.2-1.4-1.2
	c-0.6,0-1.4,0.4-1.5,1.2H123.5z"/>
<path class="st0" d="M136.1,33.1c0,2.7-1.9,4.2-4.2,4.2H129v-8.3h2.9C134.1,28.9,136.1,30.4,136.1,33.1 M130.4,30.2v5.8h1.4
	c1.5,0,2.7-0.9,2.7-2.9c0-1.9-1.2-2.9-2.7-2.9H130.4z"/>
<path class="st0" d="M142.9,35.8c-0.6,1.1-1.7,1.7-2.8,1.7c-1.7,0-3.1-1.1-3.1-3.1s1.5-3.1,3.1-3.1s2.9,0.9,2.9,3c0,0.3,0,0.4,0,0.6
	h-4.4c0.1,1,0.8,1.3,1.5,1.3c0.5,0,1.2-0.2,1.5-0.9L142.9,35.8z M141.4,33.7c0-0.9-0.7-1.2-1.4-1.2s-1.4,0.4-1.5,1.2H141.4z"/>
<path class="st0" d="M145.2,35.2c0.2,0.5,0.5,0.9,1.3,0.9c0.6,0,0.9-0.2,0.9-0.6c0-0.6-0.8-0.6-1.4-0.7c-1.1-0.2-1.9-0.7-1.9-1.8
	c0-1.3,1.2-1.8,2.4-1.8c1.5,0,2.2,0.8,2.4,1.7l-1.4,0.5c-0.1-0.4-0.3-0.9-1-0.9c-0.4,0-0.8,0.2-0.8,0.6c0,0.5,0.5,0.6,1.3,0.6
	c0.9,0.2,2,0.5,2,1.8c0,1.3-1.1,1.9-2.5,1.9c-1.5,0-2.3-0.6-2.6-1.7L145.2,35.2z"/>
<path class="st0" d="M155.8,35.8c-0.6,1.1-1.7,1.7-2.8,1.7c-1.7,0-3.1-1.1-3.1-3.1s1.5-3.1,3.1-3.1s2.9,0.9,2.9,3c0,0.3,0,0.4,0,0.6
	h-4.4c0.1,1,0.8,1.3,1.5,1.3c0.5,0,1.2-0.2,1.5-0.9L155.8,35.8z M154.3,33.7c0-0.9-0.7-1.2-1.4-1.2c-0.6,0-1.4,0.4-1.5,1.2H154.3z"
	/>
<path class="st0" d="M162.5,37.2H161v-3.5c0-0.7-0.5-1.1-1-1.1c-0.6,0-1.3,0.5-1.3,1.3v3.3h-1.5v-5.8h1.3l0.1,1l0,0
	c0.5-0.7,1-1.1,1.9-1.1c1,0,2,0.6,2,2.4L162.5,37.2L162.5,37.2z M159.1,29.8c-0.3,0-0.4,0.2-0.4,0.6h-0.8c0-0.7,0.3-1.5,1.2-1.5
	c0.7,0,1.1,0.8,1.6,0.8c0.3,0,0.5-0.2,0.5-0.6h0.8c0,0.7-0.3,1.5-1.3,1.5C159.7,30.6,159.5,29.8,159.1,29.8"/>
<path class="st0" d="M169.9,34.4c0,1.9-1.4,3.1-3.2,3.1s-3.2-1.2-3.2-3.1c0-1.9,1.4-3.1,3.2-3.1C168.5,31.3,169.9,32.5,169.9,34.4
	 M165.2,34.4c0,0.9,0.6,1.7,1.7,1.7c1,0,1.7-0.8,1.7-1.7c0-0.9-0.6-1.7-1.7-1.7C165.7,32.6,165.2,33.4,165.2,34.4"/>
</svg>
