<?xml version="1.0" encoding="utf-8"?>
<!-- Generator: Adobe Illustrator 21.1.0, SVG Export Plug-In . SVG Version: 6.00 Build 0)  -->
<svg version="1.1" id="Layer_1" xmlns="http://www.w3.org/2000/svg" xmlns:xlink="http://www.w3.org/1999/xlink" x="0px" y="0px"
	 width="200px" height="60px" viewBox="0 0 200 60" style="enable-background:new 0 0 200 60;" xml:space="preserve">
<style type="text/css">
	.st0{fill:#1D1D1B;}
	.st1{fill:#A6A6A5;}
	.st2{fill:#D0D0D0;}
	.st3{fill:#8A8989;}
	.st4{fill:#878787;}
	.st5{fill:#C2C2C2;}
	.st6{fill:#838382;}
	.st7{fill:#9F9F9F;}
	.st8{fill:#6D6D6C;}
	.st9{fill:#CACACA;}
	.st10{fill:#706F6F;}
	.st11{fill:#5C5C5B;}
</style>
<g>
	<g>
		<path class="st0" d="M13.2,33.8L11.8,39H9.7l5-18.7h3.6l5,18.7h-2.2l-1.4-5.2H13.2z M16.5,21.7l-2.8,10.4h5.5L16.5,21.7z"/>
		<path class="st0" d="M30,39.5c-3.3,0-6-2.7-6-6v-7.7c0-3.3,2.7-6,6-6s6,2.7,6,6v1.1h-2.2v-1.3c0-2.1-1.7-3.8-3.8-3.8
			c-2,0-3.8,1.7-3.8,3.8v8.1c0,2.1,1.7,3.8,3.8,3.8c1.3,0,2.6-0.3,3.8-0.8v-5.1H30V30h5.9v7.8C34.2,38.8,32.2,39.5,30,39.5z"/>
		<path class="st0" d="M40.6,33.8L39.2,39H37l5-18.7h3.6l5,18.7h-2.2L47,33.8H40.6z M43.8,21.7L41,32.1h5.5L43.8,21.7z"/>
		<path class="st0" d="M57.2,19.9c4.2,0,6.1,3.4,6.1,6v7.2c0,3.3-2.7,6-6,6h-5.6V20.7C53.4,20.2,55.2,19.9,57.2,19.9z M53.8,37.1
			h3.5c2,0,3.8-1.7,3.8-3.8v-7.6c0-2.1-1.7-3.8-3.8-3.8h-3.5V37.1z"/>
		<path class="st0" d="M67.8,20.3V39h-2.1V20.3H67.8z"/>
		<path class="st0" d="M79.9,26.9v-1.3c0-2.1-1.7-3.8-3.8-3.8c-2,0-3.8,1.7-3.8,3.8v8.1c0,2.1,1.7,3.8,3.8,3.8c2,0,3.7-0.5,5.3-1.4
			v2.1c-1.6,0.8-3.4,1.3-5.3,1.3c-3.3,0-6-2.7-6-6v-7.7c0-3.3,2.7-6,6-6s6,2.7,6,6v1.1C82.1,26.9,79.9,26.9,79.9,26.9z"/>
	</g>
	<g>
		<polygon class="st1" points="107.2,6.4 108,5.9 108,0.8 101.2,5.4 101.2,8.8 		"/>
		<polygon class="st1" points="95.5,9.3 89.3,13.5 93.9,11.7 		"/>
		<polygon class="st1" points="89.3,45.8 95.5,50.1 93.9,47.6 		"/>
		<polygon class="st1" points="101.2,50.5 101.2,53.9 108,58.5 108,53.5 107.2,52.9 		"/>
		<polygon class="st2" points="121.6,0.8 114.8,3.4 114.8,55.9 121.6,58.5 		"/>
		<polygon class="st3" points="101.2,50.5 107.2,52.9 101.2,48.4 		"/>
		<polygon class="st3" points="107.2,6.4 101.2,8.8 101.2,11 		"/>
		<polygon class="st4" points="92.7,45.8 92.7,13.5 93.9,11.7 89.3,13.5 89.3,45.8 93.9,47.6 		"/>
		<polygon class="st5" points="114.8,3.4 114.8,0.8 108,5.9 108,6.1 		"/>
		<polygon class="st5" points="108,53.5 114.8,58.5 114.8,55.9 108,53.2 		"/>
		<polygon class="st6" points="108,6.1 108,5.9 107.2,6.4 		"/>
		<polygon class="st6" points="107.2,52.9 108,53.5 108,53.2 		"/>
		<polygon class="st7" points="108,6.1 108,53.2 114.8,55.9 114.8,3.4 		"/>
		<polygon class="st8" points="101.2,11 101.2,48.4 107.2,52.9 108,53.2 108,6.1 107.2,6.4 		"/>
		<polygon class="st9" points="101.2,58.5 101.2,53.9 95.5,50.1 		"/>
		<polygon class="st9" points="101.2,0.8 95.5,9.3 101.2,5.4 		"/>
		<polygon class="st4" points="101.2,8.8 101.2,5.4 95.5,9.3 93.9,11.7 		"/>
		<polygon class="st4" points="93.9,47.6 95.5,50.1 101.2,53.9 101.2,50.5 		"/>
		<polygon class="st10" points="97.8,45.8 97.8,13.5 101.2,11 101.2,8.8 93.9,11.7 92.7,13.5 92.7,45.8 93.9,47.6 101.2,50.5 
			101.2,48.4 		"/>
		<polygon class="st11" points="97.8,45.8 101.2,48.4 101.2,11 97.8,13.5 		"/>
	</g>
	<g>
		<g>
			<path class="st0" d="M128.9,39v-7.4h0.6V39H128.9z"/>
			<path class="st0" d="M132.9,39v-4c0-0.6-0.3-0.9-0.7-0.9s-0.7,0.3-0.7,0.9v4h-0.6v-5.3h0.6v0.4c0.1-0.1,0.2-0.3,0.3-0.3
				c0.2-0.1,0.4-0.2,0.6-0.2c0.4,0,0.6,0.1,0.8,0.4c0.2,0.2,0.3,0.5,0.3,1v4C133.5,39,132.9,39,132.9,39z"/>
			<path class="st0" d="M136.6,39v-0.4c-0.1,0.1-0.2,0.3-0.3,0.3c-0.2,0.1-0.4,0.2-0.6,0.2c-0.3,0-0.6-0.1-0.8-0.4
				c-0.3-0.4-0.4-1-0.4-2.4c0-1.3,0.1-2,0.4-2.4c0.2-0.2,0.5-0.4,0.8-0.4c0.2,0,0.4,0.1,0.6,0.2c0.1,0.1,0.2,0.2,0.3,0.3v-2.5h0.6
				V39H136.6z M136.6,35.1c0-0.3-0.1-0.6-0.2-0.7c-0.1-0.1-0.3-0.2-0.5-0.2s-0.4,0.1-0.5,0.2c-0.2,0.3-0.3,0.8-0.3,2
				c0,1.1,0,1.7,0.3,2c0.1,0.1,0.3,0.2,0.5,0.2s0.4-0.1,0.5-0.2c0.2-0.2,0.2-0.4,0.2-0.7V35.1z"/>
			<path class="st0" d="M140.5,39v-0.4c-0.1,0.1-0.2,0.3-0.3,0.3c-0.2,0.1-0.4,0.2-0.6,0.2c-0.4,0-0.6-0.1-0.8-0.4
				c-0.2-0.2-0.3-0.5-0.3-1.1v-4h0.6v4c0,0.6,0.3,0.9,0.7,0.9s0.7-0.3,0.7-0.9v-4h0.6V39H140.5z"/>
			<path class="st0" d="M144.4,38.7c-0.3,0.3-0.6,0.4-1,0.4s-0.7-0.1-1-0.4c-0.3-0.3-0.4-0.7-0.4-1.1h0.6c0,0.3,0.1,0.6,0.3,0.8
				c0.1,0.1,0.3,0.2,0.5,0.2s0.4-0.1,0.6-0.2c0.2-0.2,0.2-0.4,0.2-0.7c0-0.2,0-0.4-0.1-0.6c-0.1-0.2-0.3-0.3-0.5-0.5l-0.7-0.4
				c-0.3-0.2-0.6-0.4-0.7-0.6c-0.1-0.2-0.1-0.4-0.1-0.7c0-0.4,0.2-0.7,0.4-1c0.2-0.2,0.6-0.4,0.9-0.4c0.4,0,0.7,0.1,0.9,0.4
				c0.3,0.3,0.4,0.6,0.4,1.1h-0.6c0-0.4-0.1-0.6-0.2-0.8c-0.1-0.2-0.3-0.2-0.5-0.2s-0.4,0.1-0.6,0.2c-0.2,0.2-0.2,0.4-0.2,0.6
				c0,0.2,0,0.3,0.1,0.5c0.1,0.1,0.2,0.3,0.5,0.4l0.7,0.4c0.3,0.2,0.6,0.4,0.7,0.6c0.1,0.2,0.2,0.5,0.2,0.8
				C144.8,38.1,144.7,38.4,144.4,38.7z"/>
			<path class="st0" d="M146.4,38.7c-0.3-0.2-0.4-0.6-0.4-1.1v-3.4h-0.6v-0.5h0.6v-1.6h0.6v1.6h0.9v0.5h-0.9v3.4
				c0,0.6,0.3,0.9,0.9,0.9V39C147.1,39,146.7,39,146.4,38.7z"/>
			<path class="st0" d="M150,34.2c-0.6,0-1,0.4-1,1V39h-0.6v-5.3h0.6v0.6c0.1-0.1,0.2-0.3,0.3-0.3c0.2-0.2,0.6-0.3,0.9-0.3v0.6
				L150,34.2L150,34.2z"/>
			<path class="st0" d="M150.8,32.5v-0.7h0.7v0.7H150.8z M150.9,39v-5.3h0.6V39H150.9z"/>
			<path class="st0" d="M154.6,39v-0.5c-0.1,0.1-0.2,0.3-0.3,0.4c-0.2,0.1-0.3,0.2-0.6,0.2s-0.6-0.1-0.8-0.4
				c-0.2-0.2-0.3-0.6-0.3-1.2c0-0.5,0.1-0.9,0.4-1.2c0.3-0.2,0.6-0.4,1-0.4h0.6V35c0-0.6-0.2-0.9-0.7-0.9c-0.2,0-0.4,0.1-0.5,0.2
				c-0.2,0.2-0.2,0.4-0.2,0.7h-0.6c0-0.4,0.1-0.8,0.4-1.1c0.2-0.2,0.5-0.4,0.9-0.4s0.7,0.1,0.9,0.3s0.4,0.6,0.4,1.1V39H154.6z
				 M154.6,36.4H154c-0.3,0-0.5,0.1-0.6,0.2c-0.2,0.2-0.3,0.5-0.3,0.9c0,0.6,0.2,1,0.7,1s0.8-0.4,0.8-1L154.6,36.4L154.6,36.4z"/>
			<path class="st0" d="M158.5,38.7c-0.3,0.3-0.6,0.4-1,0.4s-0.7-0.1-1-0.4c-0.3-0.3-0.4-0.7-0.4-1.1h0.6c0,0.3,0.1,0.6,0.3,0.8
				c0.1,0.1,0.3,0.2,0.5,0.2s0.4-0.1,0.6-0.2c0.2-0.2,0.2-0.4,0.2-0.7c0-0.2,0-0.4-0.1-0.6c-0.1-0.2-0.3-0.3-0.5-0.5l-0.7-0.4
				c-0.3-0.2-0.6-0.4-0.7-0.6c-0.1-0.2-0.1-0.4-0.1-0.7c0-0.4,0.2-0.7,0.4-1c0.2-0.2,0.6-0.4,0.9-0.4c0.4,0,0.7,0.1,0.9,0.4
				c0.3,0.3,0.4,0.6,0.4,1.1h-0.6c0-0.4-0.1-0.6-0.2-0.8c-0.1-0.2-0.3-0.2-0.5-0.2s-0.4,0.1-0.6,0.2c-0.2,0.2-0.2,0.4-0.2,0.6
				c0,0.2,0,0.3,0.1,0.5c0.1,0.1,0.2,0.3,0.5,0.4l0.7,0.4c0.3,0.2,0.6,0.4,0.7,0.6c0.1,0.2,0.2,0.5,0.2,0.8
				C158.9,38.1,158.8,38.4,158.5,38.7z"/>
			<path class="st0" d="M164.5,38.7c-0.2,0.2-0.6,0.4-1,0.4c-0.5,0-0.9-0.2-1.1-0.4c-0.5-0.5-0.5-1.1-0.5-3.3c0-2.3,0.1-2.8,0.5-3.3
				c0.2-0.3,0.6-0.4,1.1-0.4s0.8,0.1,1.1,0.4s0.5,0.8,0.5,1.4h-0.6c0-0.4-0.1-0.7-0.3-1c-0.1-0.2-0.3-0.2-0.6-0.2s-0.5,0.1-0.7,0.3
				c-0.3,0.4-0.4,0.8-0.4,3s0.1,2.6,0.4,3c0.1,0.2,0.4,0.3,0.7,0.3s0.5-0.1,0.6-0.2c0.2-0.2,0.3-0.6,0.3-1h0.6
				C165,37.9,164.8,38.4,164.5,38.7z"/>
			<path class="st0" d="M168.1,39v-0.4c-0.1,0.1-0.2,0.3-0.3,0.3c-0.2,0.1-0.4,0.2-0.6,0.2c-0.4,0-0.6-0.1-0.8-0.4
				c-0.2-0.2-0.3-0.5-0.3-1.1v-4h0.6v4c0,0.6,0.3,0.9,0.7,0.9s0.7-0.3,0.7-0.9v-4h0.6V39H168.1z"/>
			<path class="st0" d="M170.2,38.7c-0.2-0.2-0.4-0.6-0.4-1.1v-6h0.6v6c0,0.6,0.3,0.9,0.9,0.9V39C170.9,39,170.5,38.9,170.2,38.7z"
				/>
			<path class="st0" d="M172.7,38.7c-0.3-0.2-0.4-0.6-0.4-1.1v-3.4h-0.6v-0.5h0.6v-1.6h0.6v1.6h0.9v0.5h-0.9v3.4
				c0,0.6,0.3,0.9,0.9,0.9V39C173.4,39,173,39,172.7,38.7z"/>
			<path class="st0" d="M176.7,39v-0.4c-0.1,0.1-0.2,0.3-0.3,0.3c-0.2,0.1-0.4,0.2-0.6,0.2c-0.4,0-0.6-0.1-0.8-0.4
				c-0.2-0.2-0.3-0.5-0.3-1.1v-4h0.6v4c0,0.6,0.3,0.9,0.7,0.9s0.7-0.3,0.7-0.9v-4h0.6V39H176.7z"/>
			<path class="st0" d="M180.1,34.2c-0.6,0-1,0.4-1,1V39h-0.6v-5.3h0.6v0.6c0.1-0.1,0.2-0.3,0.3-0.3c0.2-0.2,0.6-0.3,0.9-0.3v0.6
				L180.1,34.2L180.1,34.2z"/>
			<path class="st0" d="M182.9,39v-0.5c-0.1,0.1-0.2,0.3-0.3,0.4c-0.2,0.1-0.3,0.2-0.6,0.2s-0.6-0.1-0.8-0.4
				c-0.2-0.2-0.3-0.6-0.3-1.2c0-0.5,0.1-0.9,0.4-1.2c0.3-0.2,0.6-0.4,1-0.4h0.6V35c0-0.6-0.2-0.9-0.7-0.9c-0.2,0-0.4,0.1-0.5,0.2
				c-0.2,0.2-0.2,0.4-0.2,0.7h-0.6c0-0.4,0.1-0.8,0.4-1.1c0.2-0.2,0.5-0.4,0.9-0.4s0.7,0.1,0.9,0.3s0.4,0.6,0.4,1.1V39H182.9z
				 M182.9,36.4h-0.6c-0.3,0-0.5,0.1-0.6,0.2c-0.2,0.2-0.3,0.5-0.3,0.9c0,0.6,0.2,1,0.7,1s0.8-0.4,0.8-1L182.9,36.4L182.9,36.4z"/>
			<path class="st0" d="M184.7,32.5v-0.7h0.7v0.7H184.7z M184.7,39v-5.3h0.6V39H184.7z"/>
			<path class="st0" d="M188.7,38.7c-0.3,0.3-0.6,0.4-1,0.4s-0.7-0.1-1-0.4c-0.3-0.3-0.4-0.7-0.4-1.1h0.6c0,0.3,0.1,0.6,0.3,0.8
				c0.1,0.1,0.3,0.2,0.5,0.2s0.4-0.1,0.6-0.2c0.2-0.2,0.2-0.4,0.2-0.7c0-0.2,0-0.4-0.1-0.6c-0.1-0.2-0.3-0.3-0.5-0.5l-0.7-0.4
				c-0.3-0.2-0.6-0.4-0.7-0.6c-0.1-0.2-0.1-0.4-0.1-0.7c0-0.4,0.2-0.7,0.4-1c0.2-0.2,0.6-0.4,0.9-0.4c0.4,0,0.7,0.1,0.9,0.4
				c0.3,0.3,0.4,0.6,0.4,1.1h-0.6c0-0.4-0.1-0.6-0.2-0.8c-0.1-0.2-0.3-0.2-0.5-0.2s-0.4,0.1-0.6,0.2c-0.2,0.2-0.2,0.4-0.2,0.6
				c0,0.2,0,0.3,0.1,0.5c0.1,0.1,0.2,0.3,0.5,0.4l0.7,0.4c0.3,0.2,0.6,0.4,0.7,0.6c0.1,0.2,0.2,0.5,0.2,0.8
				C189.1,38.1,189,38.4,188.7,38.7z"/>
		</g>
		<g>
			<path class="st0" d="M131.7,27.6l-0.4-2h-1.7l-0.4,2h-0.7l1.7-7.4h0.6l1.6,7.4H131.7z M130.4,21.3l-0.7,3.7h1.5L130.4,21.3z"/>
			<path class="st0" d="M134.9,27.6l-0.8-2.2l-0.9,2.2h-0.6l1.2-2.7l-1.1-2.6h0.6l0.8,2.1l0.8-2.1h0.6l-1.1,2.6l1.2,2.7H134.9z"/>
			<path class="st0" d="M136.9,25c0,1.1,0,1.6,0.3,1.9c0.1,0.1,0.3,0.2,0.5,0.2s0.4-0.1,0.5-0.2c0.2-0.2,0.2-0.4,0.2-0.7h0.6
				c0,0.5-0.1,0.8-0.4,1.1c-0.2,0.2-0.6,0.4-1,0.4s-0.7-0.1-1-0.4c-0.4-0.4-0.4-1.1-0.4-2.3s0.1-2,0.4-2.4c0.2-0.2,0.5-0.4,0.9-0.4
				s0.7,0.1,0.9,0.4C139,23,139,23.7,139,25H136.9z M138.2,23c-0.1-0.1-0.3-0.2-0.5-0.2s-0.4,0.1-0.5,0.2c-0.2,0.2-0.2,0.7-0.3,1.6
				h1.6C138.4,23.7,138.4,23.2,138.2,23z"/>
			<path class="st0" d="M142.2,27.6v-4c0-0.6-0.3-0.9-0.7-0.9s-0.7,0.3-0.7,0.9v4h-0.6v-5.3h0.6v0.4c0.1-0.1,0.2-0.3,0.3-0.3
				c0.2-0.1,0.4-0.2,0.6-0.2c0.4,0,0.6,0.1,0.8,0.4c0.2,0.2,0.3,0.5,0.3,1v4C142.8,27.6,142.2,27.6,142.2,27.6z"/>
			<path class="st0" d="M146.3,27.3c-0.2,0.2-0.6,0.3-0.9,0.3c-0.4,0-0.7-0.1-1-0.4c-0.3-0.4-0.4-1.1-0.4-2.3s0.1-1.9,0.4-2.3
				c0.2-0.3,0.6-0.4,1-0.4s0.7,0.1,0.9,0.3c0.3,0.3,0.4,0.7,0.4,1.2h-0.6c0-0.3,0-0.5-0.2-0.7c-0.1-0.1-0.3-0.2-0.5-0.2
				s-0.4,0.1-0.5,0.2c-0.2,0.3-0.3,0.8-0.3,2s0,1.7,0.3,2c0.1,0.1,0.3,0.2,0.5,0.2s0.4-0.1,0.5-0.2c0.2-0.2,0.2-0.4,0.2-0.7h0.6
				C146.7,26.7,146.5,27.1,146.3,27.3z"/>
			<path class="st0" d="M147.7,21.1v-0.7h0.7v0.7H147.7z M147.8,27.6v-5.3h0.6v5.3C148.4,27.6,147.8,27.6,147.8,27.6z"/>
			<path class="st0" d="M151.6,27.6v-0.5c-0.1,0.1-0.2,0.3-0.3,0.4c-0.2,0.1-0.3,0.2-0.6,0.2s-0.6-0.1-0.8-0.4
				c-0.2-0.2-0.3-0.6-0.3-1.2c0-0.5,0.1-0.9,0.4-1.2c0.3-0.2,0.6-0.4,1-0.4h0.6v-0.9c0-0.6-0.2-0.9-0.7-0.9c-0.2,0-0.4,0.1-0.5,0.2
				c-0.2,0.2-0.2,0.4-0.2,0.7h-0.6c0-0.4,0.1-0.8,0.4-1.1c0.2-0.2,0.5-0.4,0.9-0.4s0.7,0.1,0.9,0.3c0.2,0.2,0.4,0.6,0.4,1.1v3.9
				h-0.6V27.6z M151.6,25H151c-0.3,0-0.5,0.1-0.6,0.2c-0.2,0.2-0.3,0.5-0.3,0.9c0,0.6,0.2,1,0.7,1s0.8-0.4,0.8-1L151.6,25L151.6,25z
				"/>
			<path class="st0" d="M156.9,27.7c-0.5,0-0.9-0.2-1.1-0.4c-0.5-0.5-0.5-1.1-0.5-3.3c0-2.3,0.1-2.8,0.5-3.3
				c0.2-0.3,0.6-0.4,1.1-0.4s0.8,0.2,1.1,0.4c0.3,0.3,0.5,0.8,0.5,1.4h-0.6c0-0.6-0.2-1.2-0.9-1.2c-0.3,0-0.5,0.1-0.7,0.3
				c-0.3,0.4-0.4,0.8-0.4,3s0.1,2.6,0.4,3c0.1,0.2,0.4,0.3,0.7,0.3c0.5,0,0.9-0.4,0.9-1.1v-1.8H157v-0.5h1.5V26
				C158.5,27.1,157.8,27.7,156.9,27.7z"/>
			<path class="st0" d="M161.6,27.6v-0.5c-0.1,0.1-0.2,0.3-0.3,0.4c-0.2,0.1-0.3,0.2-0.6,0.2s-0.6-0.1-0.8-0.4
				c-0.2-0.2-0.3-0.6-0.3-1.2c0-0.5,0.1-0.9,0.4-1.2c0.3-0.2,0.6-0.4,1-0.4h0.6v-0.9c0-0.6-0.2-0.9-0.7-0.9c-0.2,0-0.4,0.1-0.5,0.2
				c-0.2,0.2-0.2,0.4-0.2,0.7h-0.6c0-0.4,0.1-0.8,0.4-1.1c0.2-0.2,0.5-0.4,0.9-0.4s0.7,0.1,0.9,0.3c0.2,0.2,0.4,0.6,0.4,1.1v3.9
				h-0.6V27.6z M161.6,25H161c-0.3,0-0.5,0.1-0.6,0.2c-0.2,0.2-0.3,0.5-0.3,0.9c0,0.6,0.2,1,0.7,1s0.8-0.4,0.8-1L161.6,25L161.6,25z
				"/>
			<path class="st0" d="M163.9,27.2c-0.2-0.2-0.4-0.6-0.4-1.1v-6h0.6v6c0,0.6,0.3,0.9,0.9,0.9v0.5C164.5,27.6,164.1,27.5,163.9,27.2
				z"/>
			<path class="st0" d="M166.2,25c0,1.1,0,1.6,0.3,1.9c0.1,0.1,0.3,0.2,0.5,0.2s0.4-0.1,0.5-0.2c0.2-0.2,0.2-0.4,0.2-0.7h0.6
				c0,0.5-0.1,0.8-0.4,1.1c-0.2,0.2-0.6,0.4-1,0.4s-0.7-0.1-1-0.4c-0.4-0.4-0.4-1.1-0.4-2.3s0.1-2,0.4-2.4c0.2-0.2,0.5-0.4,0.9-0.4
				s0.7,0.1,0.9,0.4c0.4,0.4,0.4,1.2,0.4,2.4H166.2z M167.5,23c-0.1-0.1-0.3-0.2-0.5-0.2s-0.4,0.1-0.5,0.2c-0.2,0.2-0.2,0.7-0.3,1.6
				h1.6C167.8,23.7,167.7,23.2,167.5,23z"/>
			<path class="st0" d="M171.6,29.3c-0.2,0.2-0.6,0.4-0.9,0.4c-0.4,0-0.7-0.1-1-0.4s-0.4-0.6-0.4-1.1h0.6c0,0.3,0,0.6,0.2,0.8
				c0.1,0.1,0.3,0.2,0.5,0.2s0.4-0.1,0.5-0.2c0.2-0.2,0.2-0.6,0.2-1.2v-0.7c-0.1,0.1-0.2,0.2-0.3,0.3c-0.2,0.1-0.4,0.2-0.6,0.2
				c-0.3,0-0.6-0.1-0.8-0.4c-0.3-0.4-0.4-1-0.4-2.3s0.1-1.9,0.4-2.3c0.2-0.2,0.4-0.4,0.8-0.4c0.2,0,0.4,0.1,0.6,0.2
				c0.1,0.1,0.2,0.2,0.3,0.3v-0.4h0.6v5.4C172,28.6,171.9,29,171.6,29.3z M171.4,23.6c0-0.3-0.1-0.6-0.2-0.7
				c-0.1-0.1-0.3-0.2-0.5-0.2s-0.4,0.1-0.5,0.2c-0.2,0.3-0.3,0.8-0.3,1.9s0,1.6,0.3,1.9c0.1,0.1,0.3,0.2,0.5,0.2s0.4-0.1,0.5-0.2
				c0.2-0.2,0.2-0.4,0.2-0.7V23.6z"/>
			<path class="st0" d="M175.2,27.6v-0.5c-0.1,0.1-0.2,0.3-0.3,0.4c-0.2,0.1-0.3,0.2-0.6,0.2s-0.6-0.1-0.8-0.4
				c-0.2-0.2-0.3-0.6-0.3-1.2c0-0.5,0.1-0.9,0.4-1.2c0.3-0.2,0.6-0.4,1-0.4h0.6v-0.9c0-0.6-0.2-0.9-0.7-0.9c-0.2,0-0.4,0.1-0.5,0.2
				c-0.2,0.2-0.2,0.4-0.2,0.7h-0.6c0-0.4,0.1-0.8,0.4-1.1c0.2-0.2,0.5-0.4,0.9-0.4s0.7,0.1,0.9,0.3c0.2,0.2,0.4,0.6,0.4,1.1v3.9
				h-0.6V27.6z M175.2,25h-0.6c-0.3,0-0.5,0.1-0.6,0.2c-0.2,0.2-0.3,0.5-0.3,0.9c0,0.6,0.2,1,0.7,1s0.8-0.4,0.8-1L175.2,25L175.2,25
				z"/>
			<path class="st0" d="M181,27.6v-0.4c-0.1,0.1-0.2,0.3-0.3,0.3c-0.2,0.1-0.4,0.2-0.6,0.2c-0.3,0-0.6-0.1-0.8-0.4
				c-0.3-0.4-0.4-1-0.4-2.4c0-1.3,0.1-2,0.4-2.4c0.2-0.2,0.5-0.4,0.8-0.4c0.2,0,0.4,0.1,0.6,0.2c0.1,0.1,0.2,0.2,0.3,0.3v-2.5h0.6
				v7.4L181,27.6L181,27.6z M181,23.6c0-0.3-0.1-0.6-0.2-0.7c-0.1-0.1-0.3-0.2-0.5-0.2s-0.4,0.1-0.5,0.2c-0.2,0.3-0.3,0.8-0.3,2
				s0,1.7,0.3,2c0.1,0.1,0.3,0.2,0.5,0.2s0.4-0.1,0.5-0.2c0.2-0.2,0.2-0.4,0.2-0.7V23.6z"/>
			<path class="st0" d="M184.7,27.6v-0.5c-0.1,0.1-0.2,0.3-0.3,0.4c-0.2,0.1-0.3,0.2-0.6,0.2s-0.6-0.1-0.8-0.4
				c-0.2-0.2-0.3-0.6-0.3-1.2c0-0.5,0.1-0.9,0.4-1.2c0.3-0.2,0.6-0.4,1-0.4h0.6v-0.9c0-0.6-0.2-0.9-0.7-0.9c-0.2,0-0.4,0.1-0.5,0.2
				c-0.2,0.2-0.2,0.4-0.2,0.7h-0.6c0-0.4,0.1-0.8,0.4-1.1c0.2-0.2,0.5-0.4,0.9-0.4s0.7,0.1,0.9,0.3c0.2,0.2,0.4,0.6,0.4,1.1v3.9
				h-0.6V27.6z M184.7,25h-0.6c-0.3,0-0.5,0.1-0.6,0.2c-0.2,0.2-0.3,0.5-0.3,0.9c0,0.6,0.2,1,0.7,1s0.8-0.4,0.8-1L184.7,25L184.7,25
				z"/>
			<path class="st0" d="M188.7,27.3c-0.3,0.3-0.6,0.4-1,0.4s-0.7-0.1-1-0.4s-0.4-0.7-0.4-1.1h0.6c0,0.3,0.1,0.6,0.3,0.8
				c0.1,0.1,0.3,0.2,0.5,0.2s0.4-0.1,0.6-0.2c0.2-0.2,0.2-0.4,0.2-0.7c0-0.2,0-0.4-0.1-0.6s-0.3-0.3-0.5-0.5l-0.7-0.4
				c-0.3-0.2-0.6-0.4-0.7-0.6c-0.1-0.2-0.1-0.4-0.1-0.7c0-0.4,0.2-0.7,0.4-1c0.2-0.2,0.6-0.4,0.9-0.4c0.4,0,0.7,0.1,0.9,0.4
				c0.3,0.3,0.4,0.6,0.4,1.1h-0.6c0-0.4-0.1-0.6-0.2-0.8c-0.1-0.2-0.3-0.2-0.5-0.2s-0.4,0.1-0.6,0.2c-0.2,0.2-0.2,0.4-0.2,0.6
				s0,0.3,0.1,0.5c0.1,0.1,0.2,0.3,0.5,0.4l0.7,0.4c0.3,0.2,0.6,0.4,0.7,0.6c0.1,0.2,0.2,0.5,0.2,0.8C189.1,26.6,189,27,188.7,27.3z
				"/>
		</g>
	</g>
</g>
</svg>
