<?xml version="1.0" encoding="utf-8"?>
<!-- Generator: Adobe Illustrator 21.1.0, SVG Export Plug-In . SVG Version: 6.00 Build 0)  -->
<svg version="1.1" id="Layer_1" xmlns="http://www.w3.org/2000/svg" xmlns:xlink="http://www.w3.org/1999/xlink" x="0px" y="0px"
	 width="156px" height="60px" viewBox="0 0 156 60" style="enable-background:new 0 0 156 60;" xml:space="preserve">
<style type="text/css">
	.st0{fill:#1D1D1B;}
</style>
<g>
	<path class="st0" d="M61,17.4c-7.3,0-13.2,5.9-13.2,13.2S53.8,43.7,61,43.7s13.2-5.9,13.2-13.2S68.2,17.4,61,17.4z M61,41
		c-5.7,0-10.4-4.6-10.4-10.4S55.2,20.1,61,20.1s10.4,4.6,10.4,10.4S66.7,41,61,41z"/>
	<path class="st0" d="M152,30.6c0-7.3-5.9-13.2-13.2-13.2c-7.3,0-13.2,5.9-13.2,13.2s5.9,13.2,13.2,13.2c5.3,0,10.1-3.2,12.2-8.1
		l-2.6-1.1c-1.6,3.9-5.4,6.4-9.6,6.4c-5.3,0-9.7-4-10.4-9H152V30.6z M128.5,29.2c0.7-5.1,5-9,10.4-9c5.3,0,9.7,4,10.4,9
		C149.2,29.2,128.5,29.2,128.5,29.2z"/>
	<path class="st0" d="M106.6,30.6V44h2.8V30.6c0-5.7,4.6-10.4,10.4-10.4c0.9,0,1.8,0.2,2.7,0.4l0.7-2.7c-1.1-0.3-2.3-0.5-3.4-0.5
		C112.6,17.4,106.6,23.3,106.6,30.6z"/>
	<path class="st0" d="M100.8,30.6c0,5.7-4.6,10.4-10.4,10.4c-5.8,0-10.4-4.6-10.4-10.4V17.6h-2.8v12.9c0,7.3,5.9,13.2,13.2,13.2
		c7.2,0,13.2-5.9,13.2-13.2V17.6h-2.8v12.9H100.8z"/>
	<path class="st0" d="M32,17.8c-3.2,0-6.1,1.1-8.4,3c-2.3-1.9-5.2-3-8.4-3C7.9,17.8,2,23.7,2,31v12.9h2.8V31
		c0-5.7,4.6-10.4,10.4-10.4c2.4,0,4.6,0.8,6.4,2.2c-1.8,2.3-2.8,5.1-2.8,8.1v12.9h2.8V30.9c0-2.3,0.8-4.4,2.1-6.2
		c1.3,1.8,2.1,3.9,2.1,6.2v12.9h2.8V30.9c0-3.1-1.1-5.9-2.8-8.1c1.8-1.4,4-2.2,6.4-2.2c5.7,0,10.4,4.6,10.4,10.4v12.9h2.8V31
		C45.2,23.7,39.3,17.8,32,17.8z"/>
</g>
</svg>
