<?xml version="1.0" encoding="utf-8"?>
<!-- Generator: Adobe Illustrator 21.1.0, SVG Export Plug-In . SVG Version: 6.00 Build 0)  -->
<svg version="1.1" id="Layer_1" xmlns="http://www.w3.org/2000/svg" xmlns:xlink="http://www.w3.org/1999/xlink" x="0px" y="0px"
	 width="109.8px" height="60px" viewBox="0 0 109.8 60" style="enable-background:new 0 0 109.8 60;" xml:space="preserve">
<style type="text/css">
	.st0{fill:#1D1D1B;}
</style>
<g>
	<path class="st0" d="M19.6,34.3c-2-2.3-4.8-3.6-7.7-3.6C6,30.7,1.6,35.4,1.6,41.2C1.6,48,7.3,51.6,12,51.6c2.3,0,5.4-0.9,7.7-3.5v2
		c-2.4,2.1-5.1,2.8-7.7,2.8C5.1,53,0,47.6,0,41.2c0-6.6,5.3-11.9,12-11.9c4.4,0,7.1,2.4,7.7,3L19.6,34.3L19.6,34.3z"/>
	<path class="st0" d="M45.7,27.3h23c0,8.8-1.8,15.1-7.1,20.1c-4.7,4.3-10,5.6-15.7,5.6c-8.1,0-13.5-2.9-17.1-6.6
		c-3.4-3.4-6.4-8.7-6.4-16.1c0-7.1,2.8-12.9,6.7-16.7C32.7,9.9,38.4,7,46.3,7c4.1,0,8.6,0.9,12,3c3.5,2.1,6.4,5.7,8,9.1l-11,4.5
		c-0.8-2.1-2.1-3.5-3.2-4.4c-1.9-1.6-4-2.2-6.2-2.2c-2.8,0-5.5,1-7.6,3.1c-2.6,2.6-3.9,6.7-3.9,10.2c0,4.1,1.5,7.4,3.5,9.7
		c2.1,2.3,4.8,3.4,8.1,3.4c2,0,4.4-0.3,6.4-2.1c1.1-0.8,2.4-2.5,2.8-5h-9.5V27.3z"/>
	<path class="st0" d="M82.7,45h-9.7l-3.1,7.5h-1.7l9.7-23.7l9.6,23.8h-1.7L82.7,45z M82.1,43.7l-4.3-10.9l-4.4,10.9H82.1z"/>
	<path class="st0" d="M106.8,34.3c-2-2.3-4.8-3.6-7.7-3.6c-5.9,0-10.3,4.8-10.3,10.6c0,6.8,5.7,10.4,10.4,10.4
		c2.3,0,5.4-0.9,7.7-3.5v2c-2.4,2.1-5.1,2.8-7.7,2.8c-6.9,0-12-5.4-12-11.8c0-6.6,5.3-11.9,12-11.9c4.4,0,7.1,2.4,7.7,3v2H106.8z"/>
</g>
</svg>
