<?xml version="1.0" encoding="UTF-8"?>
<svg width="168px" height="45px" viewBox="0 0 168 45" version="1.1" xmlns="http://www.w3.org/2000/svg" xmlns:xlink="http://www.w3.org/1999/xlink">
    <!-- Generator: Sketch 47 (45396) - http://www.bohemiancoding.com/sketch -->
    <title>logo-axeitos</title>
    <desc>Created with Sketch.</desc>
    <defs></defs>
    <g id="Page-1" stroke="none" stroke-width="1" fill="none" fill-rule="evenodd">
        <g id="logo-axeitos" fill-rule="nonzero" fill="#1D1D1B">
            <path d="M155.981,41.004 C155.981,39.183 156.055,38.256 157.739,38.256 C159.423,38.256 159.497,39.183 159.497,41.004 L159.497,41.452 C159.497,43.273 159.423,44.201 157.739,44.201 C156.055,44.201 155.981,43.274 155.981,41.452 L155.981,41.004 Z M155.066,40.973 L155.066,41.485 C155.066,43.658 155.426,44.989 157.739,44.989 C160.051,44.989 160.413,43.658 160.413,41.485 L160.413,40.973 C160.413,38.8 160.051,37.468 157.739,37.468 C155.427,37.468 155.066,38.8 155.066,40.973 L155.066,40.973 Z M153.468,37.585 L152.572,37.585 L152.572,44.872 L153.468,44.872 L153.468,37.585 Z M145.381,37.585 L141.228,37.585 L141.228,44.872 L145.394,44.872 L145.394,44.084 L142.121,44.084 L142.121,41.527 L145.041,41.527 L145.041,40.739 L142.121,40.739 L142.121,38.373 L145.381,38.373 L145.381,37.585 Z M121.136,37.585 L120.848,44.872 L121.732,44.872 L121.934,39.279 L123.587,43.731 L124.492,43.731 L126.143,39.279 L126.346,44.872 L127.24,44.872 L126.952,37.585 L125.983,37.585 L124.044,42.676 L122.104,37.585 L121.136,37.585 Z M119.123,37.585 L118.228,37.585 L118.228,44.872 L119.123,44.872 L119.123,37.585 Z M101.587,37.585 L100.554,37.585 L100.554,44.872 L101.429,44.872 L101.429,39.024 L104.7,44.872 L105.733,44.872 L105.733,37.585 L104.858,37.585 L104.858,43.498 L101.587,37.585 Z M94.566,41.004 C94.566,39.183 94.642,38.256 96.325,38.256 C98.007,38.256 98.084,39.183 98.084,41.004 L98.084,41.452 C98.084,43.273 98.007,44.201 96.325,44.201 C94.642,44.201 94.566,43.274 94.566,41.452 L94.566,41.004 Z M93.65,40.973 L93.65,41.485 C93.65,43.658 94.014,44.989 96.325,44.989 C98.636,44.989 99,43.658 99,41.485 L99,40.973 C99,38.8 98.636,37.468 96.325,37.468 C94.014,37.468 93.65,38.8 93.65,40.973 L93.65,40.973 Z M95.655,37.116 L97.561,36.254 L97.519,35.435 L95.505,36.499 L95.655,37.116 Z M92.054,37.585 L91.16,37.585 L91.16,44.872 L92.055,44.872 L92.055,37.585 L92.054,37.585 Z M80.134,42.113 L81.326,38.426 L82.54,42.113 L80.134,42.113 Z M80.836,37.585 L78.333,44.872 L79.238,44.872 L79.898,42.838 L82.776,42.838 L83.457,44.872 L84.405,44.872 L81.88,37.585 L80.836,37.585 Z M69.727,8.969 L66.458,8.969 L66.458,29.86 L69.727,29.86 L69.727,8.969 Z M55.536,41.004 C55.536,39.183 55.61,38.256 57.294,38.256 C58.977,38.256 59.051,39.183 59.051,41.004 L59.051,41.452 C59.051,43.273 58.976,44.201 57.294,44.201 C55.61,44.201 55.536,43.274 55.536,41.452 L55.536,41.004 Z M54.619,40.973 L54.619,41.485 C54.619,43.658 54.981,44.989 57.294,44.989 C59.607,44.989 59.968,43.658 59.968,41.485 L59.968,40.973 C59.968,38.8 59.607,37.468 57.294,37.468 C54.981,37.468 54.619,38.8 54.619,40.973 L54.619,40.973 Z M51.019,38.373 C51.818,38.373 52.094,38.586 52.094,39.811 C52.094,40.909 51.872,41.25 50.998,41.25 L49.293,41.25 L49.293,38.373 L51.019,38.373 Z M51.116,37.585 L48.399,37.585 L48.399,44.872 L49.293,44.872 L49.293,42.037 L50.86,42.037 L52.595,44.872 L53.608,44.872 L51.829,41.962 C52.767,41.74 53.002,41.017 53.002,39.811 C53.001,38.49 52.734,37.585 51.116,37.585 L51.116,37.585 Z M0,24.277 C0,27.707 2.433,30.098 6.062,30.098 C8.294,30.098 9.85,29.501 12.2,28.267 L12.2,25.115 L10.846,25.833 C9.369,26.59 7.975,27.07 6.342,27.07 C4.388,27.07 3.271,25.993 3.271,24.199 C3.271,22.525 4.148,20.849 7.696,20.849 L12.2,20.849 L12.2,18.018 L7.455,18.018 C3.23,18.018 0,20.092 0,24.277 L0,24.277 Z M14.67,29.86 L17.821,29.86 L17.821,16.343 C17.821,11.521 14.67,8.571 9.289,8.571 C4.186,8.571 0.518,11.242 0.518,15.826 L0.518,16.024 L3.667,16.024 C3.667,12.956 5.74,11.44 9.329,11.44 C12.716,11.44 14.669,13.115 14.669,16.543 L14.669,29.86 L14.67,29.86 Z M27.588,21.289 L21.409,29.86 L25.236,29.86 L29.422,23.801 L27.588,21.289 Z M40.625,29.86 L33.05,19.253 L40.424,8.969 L36.677,8.969 L31.095,16.943 L25.473,8.969 L21.607,8.969 L36.797,29.86 L40.625,29.86 L40.625,29.86 Z M51.786,27.308 C48.437,27.308 45.927,25.636 45.927,22.045 L45.927,10.524 C43.972,11.997 42.817,14.35 42.817,17.261 L42.817,22.323 C42.817,27.267 46.644,30.178 51.786,30.178 C57.089,30.178 60.477,27.387 60.477,23.52 L60.477,23.36 L57.408,23.36 C57.408,26.111 55.216,27.308 51.786,27.308 L51.786,27.308 Z M48.399,20.73 L60.558,20.73 L60.558,17.261 C60.558,12.037 56.89,8.65 51.749,8.65 C50.551,8.65 49.394,8.85 48.399,9.207 L48.399,12.357 C49.275,11.84 50.43,11.562 51.749,11.562 C55.374,11.562 57.488,13.634 57.488,17.262 L57.488,17.94 L48.399,17.94 L48.399,20.73 Z M63.898,38.373 L66.007,38.373 L66.007,37.585 L60.915,37.585 L60.915,38.373 L63.014,38.373 L63.014,44.872 L63.898,44.872 L63.898,38.373 L63.898,38.373 Z M70.007,2.55 L70.007,1.794 C70.007,0.716 69.207,0 68.092,0 C66.936,0 66.139,0.716 66.139,1.794 L66.139,2.55 C66.139,3.628 66.936,4.344 68.092,4.344 C69.207,4.344 70.007,3.627 70.007,2.55 L70.007,2.55 Z M72.175,42.454 L72.175,37.585 L71.28,37.585 L71.28,42.54 C71.28,43.626 70.801,44.202 69.608,44.202 C68.415,44.202 67.934,43.627 67.934,42.54 L67.934,37.585 L67.04,37.585 L67.04,42.454 C67.04,43.828 67.637,44.989 69.608,44.989 C71.578,44.989 72.175,43.828 72.175,42.454 L72.175,42.454 Z M74.71,37.585 L73.817,37.585 L73.817,44.872 L77.757,44.872 L77.757,44.084 L74.71,44.084 L74.71,37.585 Z M83.202,11.84 L87.109,11.84 L87.109,8.969 L83.202,8.969 L83.202,11.84 Z M84.956,29.86 L87.268,29.86 L87.268,26.87 L85.035,26.87 C82.165,26.87 80.728,25.792 80.728,22.602 L80.728,3.269 L77.54,3.269 L77.54,8.969 L73.991,8.969 L73.991,11.84 L77.5,11.84 L77.5,22.764 C77.5,27.467 80.49,29.86 84.956,29.86 L84.956,29.86 Z M86.237,41.421 L86.237,41.026 C86.237,38.938 86.397,38.255 88.036,38.255 C88.495,38.255 89.241,38.351 89.72,38.479 L89.784,37.669 C89.305,37.552 88.601,37.466 87.984,37.466 C85.661,37.466 85.32,38.713 85.32,40.971 L85.32,41.483 C85.32,43.656 85.522,44.987 88.059,44.987 C88.664,44.987 89.379,44.893 89.784,44.785 L89.72,43.986 C89.241,44.114 88.537,44.199 88.08,44.199 C86.366,44.201 86.237,43.573 86.237,41.421 L86.237,41.421 Z M108.716,21.687 L108.716,17.262 C108.716,12.038 104.848,8.651 99.586,8.651 C94.324,8.651 90.456,12.039 90.456,17.262 L90.456,21.687 C90.456,26.909 94.324,30.298 99.586,30.298 C100.822,30.298 102.018,30.06 103.095,29.739 L103.095,26.43 C102.139,27.03 100.943,27.348 99.586,27.348 C96.039,27.348 93.607,25.154 93.607,21.367 L93.607,17.58 C93.607,13.752 96.039,11.6 99.586,11.6 C103.134,11.6 105.566,13.753 105.566,17.58 L105.566,28.425 C107.52,26.95 108.716,24.596 108.716,21.687 L108.716,21.687 Z M114.158,37.585 L110.004,37.585 L110.004,44.872 L114.17,44.872 L114.17,44.084 L110.899,44.084 L110.899,41.527 L113.817,41.527 L113.817,40.739 L110.899,40.739 L110.899,38.373 L114.158,38.373 L114.158,37.585 Z M116.808,23.28 L113.5,23.28 L113.5,23.442 C113.5,27.308 116.729,30.139 122.11,30.139 C123.188,30.139 124.144,30.02 125.061,29.86 L125.061,26.908 C124.264,27.148 123.347,27.267 122.231,27.267 C118.802,27.267 116.808,26.032 116.808,23.28 L116.808,23.28 Z M117.127,14.789 C117.127,12.915 118.801,11.561 122.15,11.561 C125.46,11.561 127.333,12.795 127.333,15.546 L130.562,15.546 L130.562,15.386 C130.562,11.521 127.652,8.688 122.269,8.688 C117.009,8.688 114.018,11.162 114.018,14.909 C114.018,23.521 127.533,18.896 127.533,24.077 L127.533,28.982 C129.527,27.907 130.643,26.151 130.643,23.92 C130.643,15.468 117.127,20.61 117.127,14.789 L117.127,14.789 Z M132.63,39.877 C132.63,40.91 132.535,41.399 131.415,41.399 L129.818,41.399 L129.818,38.373 L131.415,38.373 C132.375,38.373 132.63,38.629 132.63,39.877 L132.63,39.877 Z M133.536,39.866 C133.536,38.373 133.269,37.585 131.533,37.585 L128.923,37.585 L128.923,44.872 L129.818,44.872 L129.818,42.187 L131.554,42.187 C133.237,42.187 133.536,41.411 133.536,39.866 L133.536,39.866 Z M137.476,38.373 C138.277,38.373 138.552,38.586 138.552,39.811 C138.552,40.909 138.329,41.25 137.456,41.25 L135.752,41.25 L135.752,38.373 L137.476,38.373 Z M137.574,37.585 L134.857,37.585 L134.857,44.872 L135.753,44.872 L135.753,42.037 L137.317,42.037 L139.053,44.872 L140.067,44.872 L138.286,41.962 C139.226,41.74 139.459,41.017 139.459,39.811 C139.459,38.49 139.194,37.585 137.574,37.585 L137.574,37.585 Z M141.5,28.267 C141.241,28.46 140.982,28.623 140.725,28.756 C140.472,28.887 140.186,28.949 139.865,28.949 C139.467,28.949 139.094,28.825 138.749,28.578 C138.401,28.325 138.127,28.008 137.921,27.624 C137.713,27.238 137.611,26.847 137.611,26.454 C137.611,25.769 137.997,25.193 138.773,24.728 L141.5,28.267 Z M139.926,23.215 C139.349,22.424 139.059,21.729 139.059,21.122 C139.059,20.864 139.154,20.633 139.338,20.426 C139.524,20.215 139.78,20.11 140.106,20.11 C140.333,20.11 140.529,20.169 140.693,20.287 C140.859,20.402 140.981,20.551 141.06,20.737 C141.142,20.924 141.183,21.121 141.183,21.334 C141.183,21.763 141.067,22.112 140.835,22.386 C140.606,22.656 140.305,22.932 139.926,23.215 L139.926,23.215 Z M144.08,28.5 C143.749,28.206 143.459,27.878 143.212,27.517 C143.491,27.206 143.772,26.828 144.056,26.379 L144.39,25.836 C144.709,25.331 144.937,24.99 145.071,24.812 C145.211,24.632 145.365,24.487 145.537,24.372 C145.713,24.258 145.942,24.17 146.226,24.107 L146.226,23.395 L143.042,23.395 L143.042,24.107 C143.377,24.107 143.594,24.192 143.692,24.362 C143.796,24.533 143.847,24.674 143.847,24.789 C143.847,25.135 143.737,25.492 143.514,25.857 C143.297,26.226 143.043,26.589 142.754,26.95 L140.361,23.819 C140.975,23.5 141.443,23.123 141.764,22.69 C142.083,22.251 142.245,21.808 142.245,21.366 C142.243,21.03 142.155,20.706 141.979,20.396 C141.803,20.089 141.548,19.834 141.214,19.637 C140.881,19.435 140.491,19.334 140.042,19.334 C139.738,19.334 139.436,19.386 139.135,19.491 C138.836,19.592 138.569,19.742 138.329,19.94 C138.098,20.131 137.907,20.385 137.757,20.699 C137.607,21.013 137.534,21.368 137.534,21.761 C137.534,22.167 137.599,22.549 137.734,22.899 C137.874,23.251 138.074,23.652 138.338,24.107 C137.651,24.48 137.128,24.888 136.767,25.331 C136.41,25.77 136.183,26.161 136.084,26.502 C135.989,26.837 135.944,27.151 135.944,27.438 C135.944,27.93 136.064,28.39 136.308,28.819 C136.551,29.246 136.894,29.593 137.339,29.858 C137.788,30.121 138.293,30.251 138.85,30.251 C139.335,30.251 139.843,30.134 140.377,29.897 C140.913,29.657 141.44,29.293 141.957,28.804 C142.36,29.206 142.698,29.51 142.973,29.711 C143.247,29.908 143.499,30.043 143.731,30.121 C143.969,30.198 144.21,30.236 144.452,30.236 C144.944,30.236 145.348,30.108 145.669,29.849 C145.994,29.587 146.237,29.261 146.398,28.872 C146.557,28.486 146.652,28.086 146.675,27.68 L145.955,27.68 C145.918,27.979 145.852,28.228 145.754,28.421 C145.655,28.613 145.542,28.748 145.413,28.825 C145.284,28.897 145.15,28.935 145.011,28.935 C144.721,28.935 144.41,28.79 144.08,28.5 L144.08,28.5 Z M148.993,37.468 C147.087,37.468 146.629,38.32 146.629,39.63 C146.629,40.877 147.278,41.186 148.481,41.493 C149.74,41.826 150.176,41.942 150.176,43.009 C150.176,43.883 149.749,44.201 148.674,44.201 C148.023,44.201 147.278,44.064 146.725,43.87 L146.629,44.712 C147.215,44.883 147.971,44.999 148.663,44.999 C150.56,44.999 151.092,44.2 151.092,42.912 C151.092,41.549 150.592,41.217 149.207,40.833 C147.972,40.494 147.546,40.397 147.546,39.419 C147.546,38.617 147.854,38.256 149.005,38.256 C149.633,38.256 150.304,38.373 150.816,38.523 L150.89,37.681 C150.367,37.565 149.633,37.468 148.993,37.468 L148.993,37.468 Z M157.128,29.935 L157.857,29.935 L157.857,25.967 L157.113,25.967 C157.006,26.479 156.787,26.995 156.463,27.517 C156.138,28.033 155.718,28.462 155.207,28.803 C154.7,29.142 154.131,29.315 153.495,29.315 C153.205,29.315 152.895,29.258 152.564,29.142 C152.233,29.025 151.903,28.803 151.573,28.477 C151.248,28.151 150.974,27.671 150.752,27.035 C150.53,26.395 150.419,25.597 150.419,24.633 C150.419,23.647 150.551,22.823 150.815,22.164 C151.083,21.502 151.453,21.01 151.923,20.691 C152.394,20.364 152.923,20.202 153.512,20.202 C154.038,20.202 154.542,20.339 155.023,20.613 C155.508,20.882 155.927,21.271 156.279,21.782 C156.629,22.294 156.871,22.878 157.008,23.533 L157.751,23.533 L157.627,19.667 L156.93,19.667 C156.82,20.091 156.71,20.413 156.596,20.637 C155.739,19.777 154.654,19.348 153.343,19.348 C152.547,19.348 151.815,19.494 151.142,19.782 C150.475,20.073 149.9,20.47 149.413,20.975 C148.933,21.481 148.561,22.069 148.297,22.736 C148.039,23.401 147.91,24.1 147.91,24.835 C147.91,25.867 148.151,26.796 148.631,27.623 C149.11,28.446 149.755,29.086 150.56,29.544 C151.371,30.004 152.248,30.233 153.194,30.233 C154.055,30.233 154.741,30.085 155.248,29.79 C155.753,29.498 156.203,29.146 156.596,28.737 C156.84,29.092 157.019,29.489 157.128,29.935 L157.128,29.935 Z M157.067,37.116 L158.974,36.254 L158.932,35.435 L156.919,36.499 L157.067,37.116 Z M165.008,26.802 C165.007,27.314 164.972,27.772 164.899,28.177 C164.833,28.574 164.674,28.908 164.426,29.182 C164.185,29.451 163.826,29.586 163.358,29.586 C162.644,29.586 162.183,29.341 161.971,28.847 C161.758,28.358 161.653,27.714 161.653,26.922 C161.653,26.276 161.7,25.749 161.793,25.345 C161.892,24.939 162.059,24.637 162.297,24.447 C162.54,24.252 162.875,24.153 163.304,24.153 C163.975,24.153 164.427,24.376 164.659,24.82 C164.89,25.265 165.008,25.924 165.008,26.802 L165.008,26.802 Z M166.637,28.686 C166.976,28.165 167.147,27.555 167.147,26.85 C167.147,26.239 166.999,25.676 166.704,25.153 C166.415,24.632 165.986,24.217 165.419,23.907 C164.851,23.595 164.174,23.442 163.389,23.442 C162.335,23.442 161.427,23.732 160.661,24.317 C159.896,24.894 159.515,25.745 159.515,26.864 C159.515,27.614 159.698,28.245 160.065,28.762 C160.436,29.28 160.911,29.664 161.489,29.918 C162.074,30.172 162.692,30.297 163.343,30.297 C164.035,30.297 164.671,30.16 165.249,29.886 C165.83,29.608 166.294,29.207 166.637,28.686 L166.637,28.686 Z M167.146,44.872 L167.146,37.585 L166.273,37.585 L166.273,43.498 L163.002,37.585 L161.969,37.585 L161.969,44.872 L162.842,44.872 L162.842,39.024 L166.113,44.872 L167.146,44.872 L167.146,44.872 Z" id="Shape"></path>
        </g>
    </g>
</svg>