<?xml version="1.0" encoding="utf-8"?>
<!-- Generator: Adobe Illustrator 21.1.0, SVG Export Plug-In . SVG Version: 6.00 Build 0)  -->
<svg version="1.1" id="Layer_1" xmlns="http://www.w3.org/2000/svg" xmlns:xlink="http://www.w3.org/1999/xlink" x="0px" y="0px"
	 width="113.7px" height="76.7px" viewBox="0 0 113.7 76.7" style="enable-background:new 0 0 113.7 76.7;" xml:space="preserve">
<style type="text/css">
	.st0{fill:#1D1D1B;}
</style>
<g>
	<path class="st0" d="M59,2C45.6,2,34.8,12.8,34.8,26.1c0,2.7,0.4,5.3,1.3,7.8c0.1,0.4,0.6,0.6,0.9,0.5c0.4-0.1,0.6-0.6,0.5-0.9
		c-0.8-2.3-1.2-4.8-1.2-7.3C36.3,13.6,46.5,3.5,59,3.5c12.5,0,22.7,10.2,22.7,22.7S71.5,48.8,59,48.8c-3.4,0-6.7-0.8-9.8-2.2
		c-0.4-0.2-0.8,0-1,0.3c-0.2,0.4,0,0.8,0.3,1c3.3,1.6,6.8,2.4,10.5,2.4c13.3,0,24.2-10.8,24.2-24.2S72.3,2,59,2z"/>
	<path class="st0" d="M42.3,45.5h3.5l3.9-9.7L65.1,27l3.4,9h4.2l-4.5-10.8l2.1-1.2c0.2-0.1,0.4-0.4,0.4-0.7v-0.6
		c0-0.6-0.6-0.9-1.1-0.7l-2.2,1.1L60.9,7.8l0,0l-1.5-3.5L47.1,33.9l-14.7,7.8C32.1,41.8,32,42,32,42.3l-0.5,2.6
		c0,0.6,0.6,0.9,1.1,0.7l12.6-7.2L42.3,45.5z M59.3,11.7l4.9,13.1l-13,6.8L59.3,11.7z"/>
	<path class="st0" d="M15.7,64.4c0-3.7-3-4.3-6-4.3c-1.5,0-3,0.2-4.1,0.9c-1.1,0.7-1.9,1.8-2,3.5h4c0.2-1.1,0.9-1.6,2.1-1.6
		c0.9,0,2,0.4,2,1.3c0,0.8-0.4,1-1.1,1.2c-2.9,0.6-7.5,0.3-7.5,4.5c0,2.7,1.9,3.9,4.4,3.9c1.5,0,3.2-0.4,4.2-1.6
		c0,0.4,0.1,0.8,0.2,1.2h4.2c-0.5-1-0.5-2.2-0.5-3.3V64.4z M9.1,71.2c-0.9,0-1.8-0.4-1.8-1.5c0-1,0.8-1.4,1.7-1.6
		c0.9-0.2,2-0.3,2.6-0.7C11.8,70,11.1,71.2,9.1,71.2z"/>
	<path class="st0" d="M26.7,60.1c-1.5,0-3.3,0.8-4.1,2.1h0v-1.8h-4.1v12.9h4.2v-7c0-1.4,0.7-2.8,2.3-2.8c2.3,0,2.1,1.8,2.1,3.6v6.2
		h4.2v-8.3C31.4,63.3,31,60.1,26.7,60.1z"/>
	<path class="st0" d="M42.7,61.9L42.7,61.9c-0.9-1.2-2.1-1.8-3.7-1.8c-3.7,0-5.4,3.2-5.4,6.5c0,3.6,1.7,7.1,5.8,7.1
		c1.5,0,2.7-0.6,3.6-1.9h0.1v1.5h4V55.7h-4.2V61.9z M40.4,70.5c-1.9,0-2.6-2-2.6-3.7c0-1.6,0.6-3.5,2.6-3.5c1.8,0,2.5,1.7,2.5,3.6
		C42.9,68.6,42.4,70.5,40.4,70.5z"/>
	<path class="st0" d="M58.4,67.4c0,2.3-1.4,2.9-2.3,2.9c-1.3,0-2.1-0.6-2.1-2.3v-7.5h-4.2v7.8c0,3.4,1.1,5.5,4.8,5.5
		c1.5,0,3.1-0.8,3.9-2.1h0.1v1.8h4.1V60.5h-4.2V67.4z"/>
	<path class="st0" d="M69.8,62.8L69.8,62.8l-0.1-2.3h-4.1v12.9h4.2V67c0-1.6,1.1-3.1,3.2-3.1c0.6,0,1.1,0.1,1.6,0.2v-3.9
		c-0.3-0.1-0.7-0.1-1-0.1C71.8,60.3,70.4,61.1,69.8,62.8z"/>
	<rect x="76.2" y="55.7" class="st0" width="4.2" height="3.2"/>
	<rect x="76.2" y="60.5" class="st0" width="4.2" height="12.9"/>
	<path class="st0" d="M91.6,60.1c-1.5,0-3.3,0.8-4.1,2.1h0v-1.8h-4.1v12.9h4.2v-7c0-1.4,0.7-2.8,2.3-2.8c2.3,0,2.1,1.8,2.1,3.6v6.2
		h4.2v-8.3C96.3,63.3,95.9,60.1,91.6,60.1z"/>
	<path class="st0" d="M88,57.9c0.5,0,1,0.2,1.6,0.4c0.6,0.2,1.3,0.4,2,0.4c1.9,0,2.7-1.5,3-3.2h-1.8c-0.1,0.5-0.5,1-1,1
		c-0.4,0-1-0.2-1.6-0.5c-0.6-0.2-1.3-0.5-2-0.5c-0.9,0-1.6,0.4-2.1,1.1c-0.5,0.6-0.8,1.5-0.9,2.3h1.8C87,58.5,87.4,57.9,88,57.9z"/>
	<path class="st0" d="M111,70.1v-5.6c0-3.7-3-4.3-6-4.3c-1.5,0-3,0.2-4.1,0.9c-1.1,0.7-1.9,1.8-2,3.5h4c0.2-1.1,0.9-1.6,2.1-1.6
		c0.9,0,2,0.4,2,1.3c0,0.8-0.4,1-1.1,1.2c-2.9,0.6-7.5,0.3-7.5,4.5c0,2.7,1.9,3.9,4.4,3.9c1.5,0,3.2-0.4,4.2-1.6
		c0,0.4,0.1,0.8,0.2,1.2h4.2C111,72.4,111,71.2,111,70.1z M104.4,71.2c-0.9,0-1.8-0.4-1.8-1.5c0-1,0.8-1.4,1.7-1.6
		c0.9-0.2,2-0.3,2.6-0.7C107,70,106.4,71.2,104.4,71.2z"/>
</g>
</svg>
